<?xml version="1.0" encoding="UTF-8" standalone="no"?>
<!-- Generator: Gravit.io -->
<svg xmlns="http://www.w3.org/2000/svg" xmlns:xlink="http://www.w3.org/1999/xlink" style="isolation:isolate" viewBox="0 0 1920 1080" width="1920px" height="1080px"><defs><clipPath id="_clipPath_VIuJLxfEB9FCliztkVDksimVFub7HIKe"><rect width="1920" height="1080"/></clipPath></defs><g clip-path="url(#_clipPath_VIuJLxfEB9FCliztkVDksimVFub7HIKe)"><g><path d=" M 51.868 359.631 C 29.161 384.112 -9.15 385.553 -33.631 362.845 C -58.112 340.138 -59.553 301.827 -36.845 277.346 L 7.512 318.488 L 51.868 359.631 Z " fill="rgb(234,154,96)"/><path d=" M -36.845 277.346 C -14.138 252.865 24.173 251.424 48.654 274.132 C 73.135 296.839 74.576 335.15 51.868 359.631 L 7.512 318.488 L -36.845 277.346 Z " fill="rgb(253,163,99)"/></g><g><path d=" M 1782.806 886.887 C 1805.893 921.801 1795.228 969.595 1759.003 993.549 C 1722.778 1017.503 1674.625 1008.605 1651.537 973.691 L 1717.171 930.289 L 1782.806 886.887 Z " fill="rgb(234,154,96)"/><path d=" M 1651.537 973.691 C 1628.45 938.776 1639.115 890.983 1675.34 867.029 C 1711.564 843.075 1759.718 851.973 1782.806 886.887 L 1717.171 930.289 L 1651.537 973.691 Z " fill="rgb(253,163,99)"/></g><g><path d=" M 1865.742 180.666 C 1893.857 161.218 1933.065 169.11 1953.244 198.28 C 1973.423 227.45 1966.98 266.923 1938.865 286.371 L 1902.303 233.519 L 1865.742 180.666 Z " fill="rgb(234,154,96)"/><path d=" M 1938.865 286.371 C 1910.75 305.82 1871.542 297.927 1851.363 268.757 C 1831.184 239.587 1837.627 200.115 1865.742 180.666 L 1902.303 233.519 L 1938.865 286.371 Z " fill="rgb(253,163,99)"/></g><g><path d=" M 404.918 716.264 C 386.116 767.34 327.828 792.97 274.834 773.463 C 221.841 753.955 194.081 696.65 212.883 645.574 L 308.901 680.919 L 404.918 716.264 Z " fill="rgb(234,154,96)"/><path d=" M 212.883 645.574 C 231.685 594.498 289.974 568.868 342.967 588.375 C 395.96 607.883 423.72 665.188 404.918 716.264 L 308.901 680.919 L 212.883 645.574 Z " fill="rgb(253,163,99)"/></g><g><path d=" M 403.681 711.946 C 384.188 764.9 325.896 792.259 273.59 773.005 C 221.283 753.75 194.643 695.126 214.136 642.172 L 308.908 677.059 L 403.681 711.946 Z " fill="rgb(234,154,96)"/><path d=" M 214.136 642.172 C 233.628 589.218 291.921 561.858 344.227 581.113 C 396.534 600.368 423.174 658.992 403.681 711.946 L 308.908 677.059 L 214.136 642.172 Z " fill="rgb(253,163,99)"/></g><g><path d=" M 1574.65 -210.706 C 1662.728 -145.406 1681.867 -21.757 1617.365 65.244 C 1552.863 152.244 1428.988 169.862 1340.91 104.561 L 1457.78 -53.072 L 1574.65 -210.706 Z " fill="rgb(234,154,96)"/><path d=" M 1340.91 104.561 C 1252.833 39.261 1233.693 -84.388 1298.196 -171.389 C 1362.698 -258.389 1486.573 -276.007 1574.65 -210.706 L 1457.78 -53.072 L 1340.91 104.561 Z " fill="rgb(253,163,99)"/></g><g><path d=" M 59.071 881.71 C 91.855 899.113 104.515 939.534 87.325 971.917 C 70.135 1004.301 29.562 1016.464 -3.223 999.06 L 27.924 940.385 L 59.071 881.71 Z " fill="rgb(234,154,96)"/><path d=" M -3.223 999.06 C -36.007 981.657 -48.668 941.237 -31.477 908.853 C -14.287 876.47 26.286 864.307 59.071 881.71 L 27.924 940.385 L -3.223 999.06 Z " fill="rgb(253,163,99)"/></g></g></svg>